<?xml version="1.0" encoding="UTF-8"?>
<svg width="752pt" height="752pt" version="1.1" viewBox="0 0 752 752" xmlns="http://www.w3.org/2000/svg">
 <path d="m313.13 174.99-21.055 12.773-14.328-8.4688c-39.836 70.188-79.781 140.3-119.6 210.5 44.918 22.859 90.047 45.293 135.09 67.887 2.7891 12.316 10.938 22.414 20.906 28.375 9.4922 5.5703 21.152 6.043 33.48 3.5664 41.441 29.914 82.617 60.207 124.13 90.023 40.648-71.684 81.387-143.31 122.09-214.96l-15.496-9.0625 1.9023-25.699c0.24609-2.8047-1.4297-6.3203-3.2148-7.875-18.102-16.16-44.953-38.902-71.789-53.922-13.418-7.5117-26.742-13.121-39.914-14.707-6.6953-0.80469-13.543-0.38281-19.883 1.6328-1.4531-6.5742-4.4531-12.793-8.4805-18.27-7.9375-10.801-19.492-19.727-32.605-27.777-26.223-16.102-58.902-28.254-81.73-36.098-3.5508-1.2617-5.8711-0.23828-9.5039 2.082zm10.527 18.574c21.773 7.6914 49.395 18.34 71.055 31.641 11.922 7.3203 21.609 15.43 27.195 23.027 5.4297 7.3867 7.1094 13.312 5.1172 20.352l-91.816 161.62c-5.8398-16.129-19.734-30.387-31.141-39.219-21.516-16.465-48.387-27.977-71.641-36.84zm139.48 78.73c9.2656 1.1133 20.992 5.7969 33.188 12.625 22.148 12.398 44.992 31.191 62.43 46.496l-91.234 160.58c-19.168-16.012-42.504-33.879-67.254-44.566-17.258-6.2188-32.711-10.305-48.688-8.0234l92.109-162.07c6.8164-5.3359 11.941-5.5781 19.445-5.0508z"/>
</svg>
