<?xml version="1.0" encoding="UTF-8"?>
<svg width="752pt" height="752pt" version="1.1" viewBox="0 0 752 752" xmlns="http://www.w3.org/2000/svg">
 <g fill-rule="evenodd">
  <path d="m247.74 427.3c0-5.75-2.2891-11.277-6.3516-15.352-4.0742-4.0625-9.6016-6.3516-15.352-6.3516h-15.785c-5.7539 0-11.277 2.2891-15.355 6.3516-4.0625 4.0742-6.3516 9.6016-6.3516 15.352v15.789c0 5.75 2.2891 11.277 6.3516 15.352 4.0781 4.0625 9.6016 6.3516 15.355 6.3516h15.785c5.75 0 11.277-2.2891 15.352-6.3516 4.0625-4.0742 6.3516-9.6016 6.3516-15.352zm-19.73 0v15.789c0 0.51953-0.20703 1.0234-0.58203 1.3906-0.36719 0.375-0.86719 0.58203-1.3906 0.58203h-15.785c-0.52344 0-1.0273-0.20703-1.3945-0.58203-0.375-0.36719-0.58203-0.87109-0.58203-1.3906v-15.789c0-0.52344 0.20703-1.0234 0.58203-1.3906 0.36719-0.375 0.87109-0.58203 1.3945-0.58203h15.785c0.52344 0 1.0234 0.20703 1.3906 0.58203 0.375 0.36719 0.58203 0.86719 0.58203 1.3906z"/>
  <path d="m247.74 506.23c0-5.75-2.2891-11.273-6.3516-15.352-4.0742-4.0625-9.6016-6.3516-15.352-6.3516h-15.785c-5.7539 0-11.277 2.2891-15.355 6.3516-4.0625 4.0781-6.3516 9.6016-6.3516 15.352v15.789c0 5.75 2.2891 11.277 6.3516 15.352 4.0781 4.0625 9.6016 6.3516 15.355 6.3516h15.785c5.75 0 11.277-2.2891 15.352-6.3516 4.0625-4.0742 6.3516-9.6016 6.3516-15.352zm-19.73 0v15.789c0 0.52344-0.20703 1.0234-0.58203 1.3906-0.36719 0.375-0.86719 0.58203-1.3906 0.58203h-15.785c-0.52344 0-1.0273-0.20703-1.3945-0.58203-0.375-0.36719-0.58203-0.86719-0.58203-1.3906v-15.789c0-0.51953 0.20703-1.0234 0.58203-1.3906 0.36719-0.375 0.87109-0.58203 1.3945-0.58203h15.785c0.52344 0 1.0234 0.20703 1.3906 0.58203 0.375 0.36719 0.58203 0.87109 0.58203 1.3906z"/>
  <path d="m326.67 348.38c0-5.75-2.2891-11.277-6.3555-15.352-4.0742-4.0625-9.6016-6.3516-15.352-6.3516h-15.785c-5.7539 0-11.277 2.2891-15.352 6.3516-4.0664 4.0742-6.3555 9.6016-6.3555 15.352v15.785c0 5.7539 2.2891 11.277 6.3555 15.355 4.0742 4.0625 9.5977 6.3516 15.352 6.3516h15.785c5.75 0 11.277-2.2891 15.352-6.3516 4.0664-4.0781 6.3555-9.6016 6.3555-15.355zm-19.734 0v15.785c0 0.52344-0.20703 1.0273-0.58203 1.3945-0.36328 0.375-0.86719 0.58203-1.3906 0.58203h-15.785c-0.52344 0-1.0273-0.20703-1.3945-0.58203-0.37109-0.36719-0.58203-0.87109-0.58203-1.3945v-15.785c0-0.52344 0.21094-1.0234 0.58203-1.3906 0.36719-0.375 0.87109-0.58203 1.3945-0.58203h15.785c0.52344 0 1.0273 0.20703 1.3906 0.58203 0.375 0.36719 0.58203 0.86719 0.58203 1.3906z"/>
  <path d="m326.67 427.3c0-5.75-2.2891-11.277-6.3555-15.352-4.0742-4.0625-9.6016-6.3516-15.352-6.3516h-15.785c-5.7539 0-11.277 2.2891-15.352 6.3516-4.0664 4.0742-6.3555 9.6016-6.3555 15.352v15.789c0 5.75 2.2891 11.277 6.3555 15.352 4.0742 4.0625 9.5977 6.3516 15.352 6.3516h15.785c5.75 0 11.277-2.2891 15.352-6.3516 4.0664-4.0742 6.3555-9.6016 6.3555-15.352zm-19.734 0v15.789c0 0.51953-0.20703 1.0234-0.58203 1.3906-0.36328 0.375-0.86719 0.58203-1.3906 0.58203h-15.785c-0.52344 0-1.0273-0.20703-1.3945-0.58203-0.37109-0.36719-0.58203-0.87109-0.58203-1.3906v-15.789c0-0.52344 0.21094-1.0234 0.58203-1.3906 0.36719-0.375 0.87109-0.58203 1.3945-0.58203h15.785c0.52344 0 1.0273 0.20703 1.3906 0.58203 0.375 0.36719 0.58203 0.86719 0.58203 1.3906z"/>
  <path d="m326.67 506.23c0-5.75-2.2891-11.273-6.3555-15.352-4.0742-4.0625-9.6016-6.3516-15.352-6.3516h-15.785c-5.7539 0-11.277 2.2891-15.352 6.3516-4.0664 4.0781-6.3555 9.6016-6.3555 15.352v15.789c0 5.75 2.2891 11.277 6.3555 15.352 4.0742 4.0625 9.5977 6.3516 15.352 6.3516h15.785c5.75 0 11.277-2.2891 15.352-6.3516 4.0664-4.0742 6.3555-9.6016 6.3555-15.352zm-19.734 0v15.789c0 0.52344-0.20703 1.0234-0.58203 1.3906-0.36328 0.375-0.86719 0.58203-1.3906 0.58203h-15.785c-0.52344 0-1.0273-0.20703-1.3945-0.58203-0.37109-0.36719-0.58203-0.86719-0.58203-1.3906v-15.789c0-0.51953 0.21094-1.0234 0.58203-1.3906 0.36719-0.375 0.87109-0.58203 1.3945-0.58203h15.785c0.52344 0 1.0273 0.20703 1.3906 0.58203 0.375 0.36719 0.58203 0.87109 0.58203 1.3906z"/>
  <path d="m405.6 348.38c0-5.75-2.2891-11.277-6.3555-15.352-4.0742-4.0625-9.6016-6.3516-15.352-6.3516h-15.785c-5.7539 0-11.277 2.2891-15.352 6.3516-4.0664 4.0742-6.3555 9.6016-6.3555 15.352v15.785c0 5.7539 2.2891 11.277 6.3555 15.355 4.0742 4.0625 9.5977 6.3516 15.352 6.3516h15.785c5.75 0 11.277-2.2891 15.352-6.3516 4.0664-4.0781 6.3555-9.6016 6.3555-15.355zm-19.734 0v15.785c0 0.52344-0.20703 1.0273-0.58203 1.3945-0.36328 0.375-0.86719 0.58203-1.3906 0.58203h-15.785c-0.52344 0-1.0273-0.20703-1.3906-0.58203-0.375-0.36719-0.58203-0.87109-0.58203-1.3945v-15.785c0-0.52344 0.20703-1.0234 0.58203-1.3906 0.36328-0.375 0.86719-0.58203 1.3906-0.58203h15.785c0.52344 0 1.0273 0.20703 1.3906 0.58203 0.375 0.36719 0.58203 0.86719 0.58203 1.3906z"/>
  <path d="m405.6 427.3c0-5.75-2.2891-11.277-6.3555-15.352-4.0742-4.0625-9.6016-6.3516-15.352-6.3516h-15.785c-5.7539 0-11.277 2.2891-15.352 6.3516-4.0664 4.0742-6.3555 9.6016-6.3555 15.352v15.789c0 5.75 2.2891 11.277 6.3555 15.352 4.0742 4.0625 9.5977 6.3516 15.352 6.3516h15.785c5.75 0 11.277-2.2891 15.352-6.3516 4.0664-4.0742 6.3555-9.6016 6.3555-15.352zm-19.734 0v15.789c0 0.51953-0.20703 1.0234-0.58203 1.3906-0.36328 0.375-0.86719 0.58203-1.3906 0.58203h-15.785c-0.52344 0-1.0273-0.20703-1.3906-0.58203-0.375-0.36719-0.58203-0.87109-0.58203-1.3906v-15.789c0-0.52344 0.20703-1.0234 0.58203-1.3906 0.36328-0.375 0.86719-0.58203 1.3906-0.58203h15.785c0.52344 0 1.0273 0.20703 1.3906 0.58203 0.375 0.36719 0.58203 0.86719 0.58203 1.3906z"/>
  <path d="m405.6 506.23c0-5.75-2.2891-11.273-6.3555-15.352-4.0742-4.0625-9.6016-6.3516-15.352-6.3516h-15.785c-5.7539 0-11.277 2.2891-15.352 6.3516-4.0664 4.0781-6.3555 9.6016-6.3555 15.352v15.789c0 5.75 2.2891 11.277 6.3555 15.352 4.0742 4.0625 9.5977 6.3516 15.352 6.3516h15.785c5.75 0 11.277-2.2891 15.352-6.3516 4.0664-4.0742 6.3555-9.6016 6.3555-15.352zm-19.734 0v15.789c0 0.52344-0.20703 1.0234-0.58203 1.3906-0.36328 0.375-0.86719 0.58203-1.3906 0.58203h-15.785c-0.52344 0-1.0273-0.20703-1.3906-0.58203-0.375-0.36719-0.58203-0.86719-0.58203-1.3906v-15.789c0-0.51953 0.20703-1.0234 0.58203-1.3906 0.36328-0.375 0.86719-0.58203 1.3906-0.58203h15.785c0.52344 0 1.0273 0.20703 1.3906 0.58203 0.375 0.36719 0.58203 0.87109 0.58203 1.3906z"/>
  <path d="m484.53 348.38c0-5.75-2.2891-11.277-6.3555-15.352-4.0742-4.0625-9.5977-6.3516-15.352-6.3516h-15.785c-5.7539 0-11.277 2.2891-15.352 6.3516-4.0664 4.0742-6.3555 9.6016-6.3555 15.352v15.785c0 5.7539 2.2891 11.277 6.3555 15.355 4.0742 4.0625 9.5977 6.3516 15.352 6.3516h15.785c5.7539 0 11.277-2.2891 15.352-6.3516 4.0664-4.0781 6.3555-9.6016 6.3555-15.355zm-19.734 0v15.785c0 0.52344-0.20703 1.0273-0.58203 1.3945-0.36328 0.375-0.86719 0.58203-1.3906 0.58203h-15.785c-0.52344 0-1.0273-0.20703-1.3906-0.58203-0.375-0.36719-0.58203-0.87109-0.58203-1.3945v-15.785c0-0.52344 0.20703-1.0234 0.58203-1.3906 0.36328-0.375 0.86719-0.58203 1.3906-0.58203h15.785c0.52344 0 1.0273 0.20703 1.3906 0.58203 0.375 0.36719 0.58203 0.86719 0.58203 1.3906z"/>
  <path d="m484.53 427.3c0-5.75-2.2891-11.277-6.3555-15.352-4.0742-4.0625-9.5977-6.3516-15.352-6.3516h-15.785c-5.7539 0-11.277 2.2891-15.352 6.3516-4.0664 4.0742-6.3555 9.6016-6.3555 15.352v15.789c0 5.75 2.2891 11.277 6.3555 15.352 4.0742 4.0625 9.5977 6.3516 15.352 6.3516h15.785c5.7539 0 11.277-2.2891 15.352-6.3516 4.0664-4.0742 6.3555-9.6016 6.3555-15.352zm-19.734 0v15.789c0 0.51953-0.20703 1.0234-0.58203 1.3906-0.36328 0.375-0.86719 0.58203-1.3906 0.58203h-15.785c-0.52344 0-1.0273-0.20703-1.3906-0.58203-0.375-0.36719-0.58203-0.87109-0.58203-1.3906v-15.789c0-0.52344 0.20703-1.0234 0.58203-1.3906 0.36328-0.375 0.86719-0.58203 1.3906-0.58203h15.785c0.52344 0 1.0273 0.20703 1.3906 0.58203 0.375 0.36719 0.58203 0.86719 0.58203 1.3906z"/>
  <path d="m484.53 506.23c0-5.75-2.2891-11.273-6.3555-15.352-4.0742-4.0625-9.5977-6.3516-15.352-6.3516h-15.785c-5.7539 0-11.277 2.2891-15.352 6.3516-4.0664 4.0781-6.3555 9.6016-6.3555 15.352v15.789c0 5.75 2.2891 11.277 6.3555 15.352 4.0742 4.0625 9.5977 6.3516 15.352 6.3516h15.785c5.7539 0 11.277-2.2891 15.352-6.3516 4.0664-4.0742 6.3555-9.6016 6.3555-15.352zm-19.734 0v15.789c0 0.52344-0.20703 1.0234-0.58203 1.3906-0.36328 0.375-0.86719 0.58203-1.3906 0.58203h-15.785c-0.52344 0-1.0273-0.20703-1.3906-0.58203-0.375-0.36719-0.58203-0.86719-0.58203-1.3906v-15.789c0-0.51953 0.20703-1.0234 0.58203-1.3906 0.36328-0.375 0.86719-0.58203 1.3906-0.58203h15.785c0.52344 0 1.0273 0.20703 1.3906 0.58203 0.375 0.36719 0.58203 0.87109 0.58203 1.3906z"/>
  <path d="m563.46 348.38c0-5.75-2.2891-11.277-6.3555-15.352-4.0742-4.0625-9.5977-6.3516-15.352-6.3516h-15.785c-5.7539 0-11.277 2.2891-15.352 6.3516-4.0664 4.0742-6.3555 9.6016-6.3555 15.352v15.785c0 5.7539 2.2891 11.277 6.3555 15.355 4.0742 4.0625 9.5977 6.3516 15.352 6.3516h15.785c5.7539 0 11.277-2.2891 15.352-6.3516 4.0664-4.0781 6.3555-9.6016 6.3555-15.355zm-19.734 0v15.785c0 0.52344-0.20703 1.0273-0.58203 1.3945-0.36328 0.375-0.86719 0.58203-1.3906 0.58203h-15.785c-0.52344 0-1.0273-0.20703-1.3906-0.58203-0.375-0.36719-0.58203-0.87109-0.58203-1.3945v-15.785c0-0.52344 0.20703-1.0234 0.58203-1.3906 0.36328-0.375 0.86719-0.58203 1.3906-0.58203h15.785c0.52344 0 1.0273 0.20703 1.3906 0.58203 0.375 0.36719 0.58203 0.86719 0.58203 1.3906z"/>
  <path d="m563.46 427.3c0-5.75-2.2891-11.277-6.3555-15.352-4.0742-4.0625-9.5977-6.3516-15.352-6.3516h-15.785c-5.7539 0-11.277 2.2891-15.352 6.3516-4.0664 4.0742-6.3555 9.6016-6.3555 15.352v15.789c0 5.75 2.2891 11.277 6.3555 15.352 4.0742 4.0625 9.5977 6.3516 15.352 6.3516h15.785c5.7539 0 11.277-2.2891 15.352-6.3516 4.0664-4.0742 6.3555-9.6016 6.3555-15.352zm-19.734 0v15.789c0 0.51953-0.20703 1.0234-0.58203 1.3906-0.36328 0.375-0.86719 0.58203-1.3906 0.58203h-15.785c-0.52344 0-1.0273-0.20703-1.3906-0.58203-0.375-0.36719-0.58203-0.87109-0.58203-1.3906v-15.789c0-0.52344 0.20703-1.0234 0.58203-1.3906 0.36328-0.375 0.86719-0.58203 1.3906-0.58203h15.785c0.52344 0 1.0273 0.20703 1.3906 0.58203 0.375 0.36719 0.58203 0.86719 0.58203 1.3906z"/>
  <path d="m464.8 188.54v-17.762c0-5.75 2.2891-11.277 6.3555-15.352 4.0742-4.0625 9.5977-6.3516 15.352-6.3516h15.785c5.7539 0 11.277 2.2891 15.352 6.3516 4.0664 4.0742 6.3555 9.6016 6.3555 15.352v17.762h29.598c13.082 0 25.633 5.1992 34.887 14.445 9.2461 9.2539 14.445 21.801 14.445 34.887v315.72c0 13.082-5.1992 25.633-14.445 34.887-9.2539 9.2461-21.805 14.445-34.887 14.445h-355.18c-13.086 0-25.633-5.1992-34.891-14.445-9.2422-9.2539-14.441-21.805-14.441-34.887v-315.72c0-13.086 5.1992-25.633 14.441-34.887 9.2578-9.2461 21.805-14.445 34.891-14.445h29.598v-17.762c0-5.75 2.2891-11.277 6.3516-15.352 4.0781-4.0625 9.6016-6.3516 15.355-6.3516h15.785c5.75 0 11.277 2.2891 15.352 6.3516 4.0625 4.0742 6.3516 9.6016 6.3516 15.352v17.762h59.199v-17.762c0-5.75 2.2891-11.277 6.3555-15.352 4.0742-4.0625 9.5977-6.3516 15.352-6.3516h15.785c5.75 0 11.277 2.2891 15.352 6.3516 4.0664 4.0742 6.3555 9.6016 6.3555 15.352v17.762zm118.39 98.66v266.39c0 7.8555-3.1172 15.383-8.6719 20.926-5.543 5.5547-13.07 8.6719-20.926 8.6719h-355.18c-7.8555 0-15.383-3.1172-20.93-8.6719-5.5547-5.543-8.6719-13.07-8.6719-20.926v-266.39zm-355.18-78.93h-29.598c-7.8555 0-15.383 3.1172-20.93 8.6758-5.5547 5.543-8.6719 13.07-8.6719 20.926v29.598h414.38v-29.598c0-7.8555-3.1172-15.383-8.6719-20.926-5.543-5.5586-13.07-8.6758-20.926-8.6758h-29.598v17.762c0 5.75-2.2891 11.277-6.3555 15.352-4.0742 4.0625-9.5977 6.3516-15.352 6.3516h-15.785c-5.7539 0-11.277-2.2891-15.352-6.3516-4.0664-4.0742-6.3555-9.6016-6.3555-15.352v-17.762h-59.195v17.762c0 5.75-2.2891 11.277-6.3555 15.352-4.0742 4.0625-9.6016 6.3516-15.352 6.3516h-15.785c-5.7539 0-11.277-2.2891-15.352-6.3516-4.0664-4.0742-6.3555-9.6016-6.3555-15.352v-17.762h-59.199v17.762c0 5.75-2.2891 11.277-6.3516 15.352-4.0742 4.0625-9.6016 6.3516-15.352 6.3516h-15.785c-5.7539 0-11.277-2.2891-15.355-6.3516-4.0625-4.0742-6.3516-9.6016-6.3516-15.352zm39.465-37.492v55.254c0 0.52344-0.20703 1.0234-0.58203 1.3906-0.36719 0.375-0.86719 0.58203-1.3906 0.58203h-15.785c-0.52344 0-1.0273-0.20703-1.3945-0.58203-0.375-0.36719-0.58203-0.86719-0.58203-1.3906v-55.254c0-0.51953 0.20703-1.0234 0.58203-1.3906 0.36719-0.375 0.87109-0.58203 1.3945-0.58203h15.785c0.52344 0 1.0234 0.20703 1.3906 0.58203 0.375 0.36719 0.58203 0.87109 0.58203 1.3906zm236.79 0v55.254c0 0.52344-0.20703 1.0234-0.58203 1.3906-0.36328 0.375-0.86719 0.58203-1.3906 0.58203h-15.785c-0.52344 0-1.0273-0.20703-1.3906-0.58203-0.375-0.36719-0.58203-0.86719-0.58203-1.3906v-55.254c0-0.51953 0.20703-1.0234 0.58203-1.3906 0.36328-0.375 0.86719-0.58203 1.3906-0.58203h15.785c0.52344 0 1.0273 0.20703 1.3906 0.58203 0.375 0.36719 0.58203 0.87109 0.58203 1.3906zm-118.39 0v55.254c0 0.52344-0.20703 1.0234-0.58203 1.3906-0.36328 0.375-0.86719 0.58203-1.3906 0.58203h-15.785c-0.52344 0-1.0273-0.20703-1.3906-0.58203-0.375-0.36719-0.58203-0.86719-0.58203-1.3906v-55.254c0-0.51953 0.20703-1.0234 0.58203-1.3906 0.36328-0.375 0.86719-0.58203 1.3906-0.58203h15.785c0.52344 0 1.0273 0.20703 1.3906 0.58203 0.375 0.36719 0.58203 0.87109 0.58203 1.3906z"/>
 </g>
</svg>
