<?xml version="1.0" encoding="UTF-8"?>
<svg width="752pt" height="752pt" version="1.1" viewBox="0 0 752 752" xmlns="http://www.w3.org/2000/svg">
 <path d="m178.29 599.25 75.387-15.086c5.7305-1.1445 10.992-3.9531 15.125-8.0898l323.06-323.05c19.258-19.27 19.258-50.504 0-69.773l-23.117-23.117c-19.27-19.258-50.508-19.258-69.777 0-77.25 77.254-290.38 290.39-323.05 323.06-4.1328 4.1328-6.9453 9.3906-8.0898 15.125l-15.086 75.387c-1.418 7.1133 0.80859 14.473 5.9414 19.605 5.1289 5.1289 12.488 7.3594 19.605 5.9375zm6.4414-84.848 52.863 52.863-63.176 12.629c-0.64844 0.13672-1.3086-0.070313-1.7852-0.53516-0.46094-0.47266-0.66797-1.1328-0.53125-1.7852zm47.359 19.457 25.512 25.512 242.57-242.57-25.516-25.516zm-39.469-39.465 25.516 25.512 242.57-242.57-25.516-25.516zm256.52-256.52 64.98 64.977 15.648-15.648-64.98-64.977zm94.578 35.379-64.977-64.98 34.184-34.176c11.555-11.562 30.301-11.562 41.855-0.007812 0 0.007812 23.117 23.125 23.117 23.125 11.562 11.555 11.562 30.301 0 41.852z" fill-rule="evenodd"/>
</svg>
