<?xml version="1.0" encoding="UTF-8"?>
<svg width="752pt" height="752pt" version="1.1" viewBox="0 0 752 752" xmlns="http://www.w3.org/2000/svg">
 <path d="m233.93 167.62c-7.9922 0.054688-14.16 8.0078-14.207 14.207v388.34c0 7.4375 6.7695 14.207 14.207 14.207h284.15c7.4375 0 14.207-6.7695 14.207-14.207v-303.09c0-3.7227-1.5156-7.4258-4.1445-10.062l-85.246-85.246c-2.6367-2.6289-6.3398-4.1523-10.062-4.1445h-198.9zm14.207 28.414h170.49v71.039c0 7.4375 6.7695 14.207 14.207 14.207h71.039v274.68h-255.73zm198.9 19.98 36.852 36.852h-36.852zm-161.02 32.113c-7.8477 0-14.207 6.3594-14.207 14.207s6.3594 14.207 14.207 14.207h94.715c7.8477 0 14.207-6.3594 14.207-14.207s-6.3594-14.207-14.207-14.207zm0 75.773c-7.8477 0-14.207 6.3594-14.207 14.207 0 7.8477 6.3594 14.207 14.207 14.207h179.96c7.8477 0 14.207-6.3594 14.207-14.207 0-7.8477-6.3594-14.207-14.207-14.207zm0 75.773c-7.8477 0-14.207 6.3594-14.207 14.207 0 7.8477 6.3594 14.207 14.207 14.207h179.96c7.8477 0 14.207-6.3594 14.207-14.207 0-7.8477-6.3594-14.207-14.207-14.207zm0 75.773c-7.8477 0-14.207 6.3594-14.207 14.207s6.3594 14.207 14.207 14.207h179.96c7.8477 0 14.207-6.3594 14.207-14.207s-6.3594-14.207-14.207-14.207z"/>
</svg>
